<?xml version="1.0" encoding="utf-8"?>
<!-- Svg Vector Icons : http://www.onlinewebfonts.com/icon -->
<!DOCTYPE svg PUBLIC "-//W3C//DTD SVG 1.1//EN" "http://www.w3.org/Graphics/SVG/1.1/DTD/svg11.dtd">
<svg version="1.1" xmlns="http://www.w3.org/2000/svg" xmlns:xlink="http://www.w3.org/1999/xlink" x="0px" y="0px" viewBox="0 0 1000 1000" enable-background="new 0 0 1000 1000" xml:space="preserve">
<metadata> Svg Vector Icons : http://www.onlinewebfonts.com/icon </metadata>
<g><path d="M151,494.9H84L269.1,990h451.3l188.8-495.1h-41.1l0,0l0,0H578.5l0,0H422.6C296.8,509.6,176.9,497.8,151,494.9L151,494.9z M422.6,494.9h155.9l0,0c0.1,0,31.5-3,124.4-59.1c93-56.1,109.1-103.3,109.1-103.3s60.9,1.2,72.9,39.4c11.9,38.2-16.7,122.9-16.7,123h41.1c0,0,31.6-124.4,0-160.3c-31.6-35.9-84.7-31.6-84.7-31.6s23.3-43.2,5.9-83.3s-112.1-41.6-112.1-41.6s10.1-37.3-15.4-67.5C677.4,80.5,608.3,96.8,589,66.1c-38.8-61.7-142.1-56-142.1-56s78.3,69.3,51,89c-27.3,19.7-95.9-19.8-140.1,0c-44.2,19.8-35.9,79-35.9,79s-90.5-5.7-117.7,41.6s11.5,90.5,11.5,90.5s-60-8-110.5,35.9C53.6,390.9,88,494.9,88,494.9h63c-3.4-0.4-5.1-0.6-5.1-0.6s-22.8-29.4-22.8-68.3s10.7-41.4,22.8-54.9c12-13.4,62.9-26.1,125.9-18.8c63,7.3,185.1,37.5,308.1-9.4c123-46.9,129.9-115.2,129.9-115.2s46.9-6.7,76.4,10.7c29.5,17.4,16.1,104.5-160.7,199.6C566.5,469.7,493.6,486.6,422.6,494.9L422.6,494.9z M496.5,948.7H290.3L142.1,535.3h709.1L692.7,948.7H496.5c11.5,0,20.7-9.4,20.7-20.5V556.6c0-11.3-9.2-20.5-20.6-20.5c-11.4,0-20.6,9.4-20.6,20.5v371.7C475.9,939.6,485.1,948.7,496.5,948.7L496.5,948.7z M624.9,537.7c-11.3-1.4-21.6,6.8-23,17.8l-45.3,368.9c-1.4,11.2,6.6,21.4,18,22.8c11.3,1.4,21.6-6.8,23-17.8l45.3-368.9C644.2,549.3,636.3,539.1,624.9,537.7z M752.8,542.3c-11.1-2.8-22.3,4.1-25,14.9l-89.9,360.6c-2.7,11,3.9,22.1,15.1,24.8c11.1,2.8,22.3-4.1,25-14.9l89.9-360.6C770.6,556.2,763.9,545.1,752.8,542.3z M248.2,541.4c-11.1,2.6-18,13.8-15.5,24.6l83.6,362.1c2.5,11,13.5,17.9,24.7,15.3c11.1-2.6,18-13.8,15.5-24.6l-83.6-362.1C270.4,545.7,259.4,538.9,248.2,541.4z M376.2,537.3c-11.3,1.2-19.5,11.5-18.4,22.5l38.9,369.6c1.2,11.2,11.2,19.4,22.7,18.2c11.3-1.2,19.5-11.5,18.4-22.5l-38.9-369.6C397.7,544.2,387.6,536.1,376.2,537.3z M579.9,221.4c-54.9,38.8-193.8,13.8-227.2,6.5c-36.1-7.9-39.2-6.5-39.2-6.5s-66.3-5.4-66.3,30.6c0,36,43,57.5,43,57.5s189.1,38.1,289.6-10.2c100.5-48.3,109-125.7,95-151.2c-14-25.5-57.2-25.6-57.2-25.6S634.8,182.6,579.9,221.4z M523.2,127.5c-45.1,20.4-120.7-8-145.4,7.1c-24.7,15.1-11.6,57.3-11.6,57.3s98.8,21.7,157,8.7c58.2-13.1,58.3-44.9,58.3-73c0-15.3-5.3-32.2-21.1-48.6c-13.2-13.8-37.3-28.6-37.3-28.6S568.3,107.1,523.2,127.5z"/></g>
</svg>